<svg xmlns="http://www.w3.org/2000/svg" width="16" height="16" viewBox="0 0 24 24">
    <g fill="none" stroke="white" stroke-width="0.3">
        <path
                fill="#d1d5db"
                d="M3 6a2 2 0 0 1 2-2h5l1.5 2H19a2 2 0 0 1 2 2v9a2 2 0 0 1-2 2H5a2 2 0 0 1-2-2V6z"
        />
    </g>
    <g fill="#a56a44" transform="translate(13, 12) scale(0.4)">
        <path d="M0 2C0 0.895431 0.895431 0 2 0H12C13.1046 0 14 0.895431 14 2V10C14 11.1046 13.1046 12 12 12H2C0.895431 12 0 11.1046 0 10V2Z"/>
        <path d="M14 3H16C17.1046 3 18 3.89543 18 5V7C18 8.10457 17.1046 9 16 9H14V3Z"/>
    </g>
</svg>